<?xml version="1.0" encoding="utf-8"?>
<!-- Generator: Adobe Illustrator 15.0.0, SVG Export Plug-In  -->
<!DOCTYPE svg PUBLIC "-//W3C//DTD SVG 1.1//EN" "http://www.w3.org/Graphics/SVG/1.1/DTD/svg11.dtd" [
	<!ENTITY ns_flows "http://ns.adobe.com/Flows/1.0/">
]>
<svg version="1.1"
	 xmlns="http://www.w3.org/2000/svg" xmlns:xlink="http://www.w3.org/1999/xlink" xmlns:a="http://ns.adobe.com/AdobeSVGViewerExtensions/3.0/"
	 x="0px" y="0px" width="1403px" height="1227px" viewBox="0 0 1403 1227" enable-background="new 0 0 1403 1227"
	 xml:space="preserve">
<defs>
</defs>
<path fill="#F6F7FA" d="M788.04,0c0,0-326.725,67.448-307.479,381.805c19.246,314.354-84.266,374.613-236.071,444.646
	C98.128,893.97-23.047,990.655,3.732,1227h1398.896V0H788.04z"/>
<path fill="#C9D6ED" d="M1035.009,872.864h-701.48c-6.043,0-10.941-4.897-10.941-10.94v-62.145h723.363v62.145
	C1045.951,867.967,1041.052,872.864,1035.009,872.864"/>
<rect x="611.481" y="872.864" fill="#8BA3CA" width="148.454" height="63.948"/>
<path fill="#3D4A77" d="M1045.951,800.964H322.587V388.361c0-5.584,4.528-10.112,10.113-10.112h703.137
	c5.585,0,10.113,4.528,10.113,10.112V800.964z"/>
<rect x="351.974" y="408.661" fill="#DBE3F1" width="669.109" height="366.203"/>
<path fill="#FFFFFF" d="M700.609,833.049c0,9.023-7.315,16.339-16.34,16.339c-9.023,0-16.339-7.315-16.339-16.339
	s7.315-16.339,16.339-16.339C693.293,816.71,700.609,824.025,700.609,833.049"/>
<path fill="#FFFFFF" d="M976.958,738.039H653.888c-1.699,0-3.076-1.377-3.076-3.075V445.085c0-1.698,1.377-3.075,3.076-3.075
	h323.069c1.698,0,3.075,1.377,3.075,3.075v289.879C980.033,736.662,978.656,738.039,976.958,738.039"/>
<path fill="#FFFFFF" d="M613.878,738.039h-214.43c-1.697,0-3.074-1.377-3.074-3.075V581.473c0-1.698,1.377-3.074,3.074-3.074h214.43
	c1.698,0,3.075,1.376,3.075,3.074v153.491C616.954,736.662,615.577,738.039,613.878,738.039"/>
<path fill="#83B3BE" d="M1127.462,656.633l-0.089,0.004c10.827-11.313,5.737-23.811,3.774-27.613
	c-0.005-0.006-0.007-0.013-0.011-0.02c-0.379-0.732-0.651-1.17-0.651-1.17l0.098,0.02c-3.139-6.188-4.944-13.164-4.944-20.576
	c0-12.597,5.105-24,13.359-32.254c7.584-10.039,1.845-23.387,1.845-23.387h0.018c-1.185-3.357-1.862-6.954-1.862-10.717
	c0-17.813,14.438-32.253,32.253-32.253c17.813,0,32.252,14.44,32.252,32.253c0,3.763-0.678,7.359-1.862,10.717h0.018
	c0,0-5.74,13.348,1.845,23.387c8.254,8.254,13.357,19.657,13.357,32.254c0,7.405-1.802,14.378-4.937,20.563l0.033-0.006
	c0,0-0.058,0.089-0.142,0.23c-0.257,0.504-0.515,1.008-0.791,1.5c-2.025,4.188-5.929,15.362,2.995,25.838
	c0.274,0.322,0.556,0.639,0.823,0.968c0.083,0.089,0.141,0.179,0.227,0.267l-0.028-0.002c7.715,9.616,12.356,21.807,12.356,35.096
	c0,31.009-25.139,56.146-56.146,56.146c-31.01,0-56.148-25.138-56.148-56.146C1115.103,678.439,1119.745,666.248,1127.462,656.633"
	/>
<path fill="#6C93A3" d="M1154.745,686.928l13.753,13.606v-47.811l-16.89-16.707c-0.876-0.866-0.885-2.278-0.018-3.153
	c0.867-0.877,2.278-0.883,3.154-0.018l13.753,13.604v-65.949c0-1.232,0.998-2.23,2.23-2.23c1.233,0,2.23,0.998,2.23,2.23v39.743
	l13.374-13.297c0.872-0.867,2.283-0.867,3.154,0.008c0.866,0.874,0.866,2.285-0.009,3.154l-16.52,16.425v48.018l14.781-14.933
	c0.861-0.877,2.274-0.881,3.154-0.017c0.875,0.866,0.885,2.278,0.018,3.153l-17.953,18.137v127.381c0,1.232-0.997,2.23-2.23,2.23
	c-1.232,0-2.23-0.998-2.23-2.23V706.809l-16.89-16.709c-0.876-0.867-0.885-2.277-0.018-3.154S1153.869,686.064,1154.745,686.928"/>
<path fill="#D0DAE8" d="M1224.081,812.507h-73.671c-1.37,0-2.479-1.108-2.479-2.479c0-1.369,1.109-2.479,2.479-2.479h73.671
	c1.369,0,2.479,1.109,2.479,2.479C1226.559,811.398,1225.45,812.507,1224.081,812.507"/>
<path fill="#DBE3F1" d="M590.637,691.354H422.512c-0.576,0-1.042-0.467-1.042-1.042v-7.469c0-0.576,0.466-1.042,1.042-1.042h168.125
	c0.575,0,1.041,0.466,1.041,1.042v7.469C591.678,690.887,591.212,691.354,590.637,691.354"/>
<path fill="#DBE3F1" d="M521.366,713.784h-98.854c-0.574,0-1.041-0.467-1.041-1.042v-7.47c0-0.575,0.467-1.042,1.041-1.042h98.854
	c0.575,0,1.041,0.467,1.041,1.042v7.47C522.407,713.317,521.941,713.784,521.366,713.784"/>
<path fill="#DBE3F1" d="M476.472,627.146c0,16.746-13.576,30.322-30.322,30.322s-30.322-13.576-30.322-30.322
	c0-16.747,13.576-30.321,30.322-30.321S476.472,610.398,476.472,627.146"/>
<path fill="#D0DAE8" d="M1139.532,963.277H239.845c-1.221,0-2.209-0.988-2.209-2.208c0-1.221,0.988-2.209,2.209-2.209h899.687
	c1.22,0,2.208,0.988,2.208,2.209C1141.74,962.289,1140.751,963.277,1139.532,963.277"/>
<path fill="#5F85BF" d="M930.125,709.769h-100.66c-2.499,0-4.525-2.024-4.525-4.524V604.583c0-2.498,2.026-4.523,4.525-4.523h100.66
	c2.499,0,4.523,2.025,4.523,4.523v100.661C934.648,707.744,932.624,709.769,930.125,709.769"/>
<path fill="#6D82BA" d="M857.29,1062.67H747.835c-1.791,0-3.243-1.452-3.243-3.244v-46.875c0-1.791,1.452-3.242,3.243-3.242H857.29
	c1.791,0,3.243,1.451,3.243,3.242v46.875C860.533,1061.218,859.081,1062.67,857.29,1062.67"/>
<path fill="#5F85BF" d="M857.29,1048.455H747.835c-1.791,0-3.243-1.452-3.243-3.243v-46.875c0-1.791,1.452-3.243,3.243-3.243H857.29
	c1.791,0,3.243,1.452,3.243,3.243v46.875C860.533,1047.003,859.081,1048.455,857.29,1048.455"/>
<path fill="#DBB69E" d="M891.804,683.69c5.448,0.084,9.885,4.687,9.909,10.281c0.025,5.594-4.371,10.061-9.818,9.978
	c-5.448-0.084-9.884-4.687-9.909-10.281C881.961,688.074,886.357,683.606,891.804,683.69"/>
<path fill="#DBB69E" d="M1079.031,756.828c-3.261-3.656-8.809-3.67-12.39-0.033c-3.582,3.637-3.843,9.551-0.582,13.206
	c3.261,3.656,8.808,3.671,12.39,0.033S1082.292,760.484,1079.031,756.828"/>
<path fill="#E1CA7B" d="M1035.172,796.087l-31.958-27.53c-4.037-2.59-8.934-1.066-10.934,3.403s-0.35,10.192,3.688,12.781
	l31.956,27.53c6.573,4.218,14.593,3.062,19.502-2.811l26.774-33.439l-12.877-12.511L1035.172,796.087z"/>
<polygon fill="#DBB69E" points="961.533,1012.692 974.405,1012.214 974.21,989.57 961.12,990.153 "/>
<path fill="#2A2631" d="M940.605,1023.262l34.035-0.391l-0.208-14.912l-20.522,0.217
	C946.495,1008.255,940.538,1015.009,940.605,1023.262"/>
<polygon fill="#DBB69E" points="1018.786,1012.692 1005.915,1012.214 1003.218,989.57 1016.308,990.153 "/>
<path fill="#2A2631" d="M1039.713,1023.262l-32.821-0.396l-1.484-14.906l21.002,0.217
	C1033.825,1008.255,1039.782,1015.009,1039.713,1023.262"/>
<polygon fill="#2C385B" points="960.688,836.796 983.042,835.962 985.368,835.875 1007.723,835.042 1007.996,867.75 962.383,869.45 
	"/>
<path fill="#2C385B" d="M1001.477,1000.381l20.312-0.139l-10.688-84.209l-3.377-80.991l-21.561,3.531l2.921,78.222
	c-0.022,0.893,0.054,1.787,0.23,2.659L1001.477,1000.381z"/>
<path fill="#2C385B" d="M957.049,999.416l19.348,0.169l-2.856-80.212l10.813-80.155l-23.666-2.422l-9.131,81.177
	c-0.088,0.804-0.094,1.616-0.018,2.422L957.049,999.416z"/>
<rect x="977.808" y="754.077" fill="#DBB69E" width="13.163" height="17.678"/>
<path fill="#DBB69E" d="M971.285,743.447c0,2.416-1.958,4.374-4.373,4.374c-2.416,0-4.375-1.958-4.375-4.374
	s1.959-4.374,4.375-4.374C969.327,739.073,971.285,741.031,971.285,743.447"/>
<path fill="#DBB69E" d="M1006.446,743.447c0,2.416-1.959,4.374-4.374,4.374c-2.416,0-4.374-1.958-4.374-4.374
	s1.958-4.374,4.374-4.374C1004.487,739.073,1006.446,741.031,1006.446,743.447"/>
<path fill="#222943" d="M1002.458,739.676c0,9.932-8.052,17.981-17.982,17.981c-9.932,0-17.982-8.05-17.982-17.981
	s8.051-17.982,17.982-17.982C994.407,721.693,1002.458,729.744,1002.458,739.676"/>
<path fill="#E1CA7B" d="M1007.763,838.995h-47.504l-1.827-55.849c0-9.36,5.823-16.949,14.608-16.949h21.942
	c8.785,0,14.608,7.589,14.608,16.949L1007.763,838.995z"/>
<path fill="#E1CA7B" d="M961.158,786.682l-35.655-36.961c-0.17-0.178-0.336-0.362-0.492-0.551l-34.988-42.301l14.936-12.357
	l34.754,42.018l35.396,36.694L961.158,786.682z"/>
<polygon fill="#DBB69E" points="763.433,431.17 775.962,430.703 770.567,408.662 757.824,409.229 "/>
<path fill="#2A2631" d="M743.06,441.458l33.132-0.38l-0.202-14.516l-19.978,0.211C748.792,426.85,742.995,433.424,743.06,441.458"/>
<polygon fill="#D6AC95" points="704.855,365.264 717.384,364.797 710.396,345.791 697.653,346.359 "/>
<path fill="#1C1B1B" d="M685.415,378.588l33.131-0.381l-0.202-14.516l-19.978,0.211
	C691.146,363.979,685.348,370.554,685.415,378.588"/>
<path fill="#293448" d="M771.137,291.078l-83.545,26.067l7.104-16.851l23.992,55.364l-21.409,1.262l-26.173-46.725
	c-2.829-6.094-0.231-13.317,5.801-16.224l1.304-0.627l78.859-37.953L771.137,291.078z"/>
<path fill="#CFA3A3" d="M613.637,330.875c-3.174-3.559-8.574-3.573-12.062-0.032c-3.486,3.541-3.74,9.296-0.566,12.855
	c3.174,3.559,8.574,3.573,12.061,0.032C616.557,340.189,616.811,334.434,613.637,330.875"/>
<path fill="#D8BF72" d="M619.112,341.158l-10.579-15.674l44.839-30.26l29.65-49.417l16.212,9.729l-30.729,51.216
	c-0.71,1.184-1.672,2.199-2.816,2.972L619.112,341.158z"/>
<polygon fill="#DBB69E" points="671.811,245.803 682.07,245.947 685.414,259.441 666.069,256.303 "/>
<path fill="#DBB69E" d="M637.047,250.521l2.93-3.429l4.532,3.856l-3.174,2.638l-3.159-0.29
	C636.814,253.171,636.16,251.563,637.047,250.521"/>
<path fill="#DBB69E" d="M643.064,257.186c6.346,7.632,17.677,8.674,25.31,2.329c7.632-6.347,8.673-17.678,2.328-25.31
	c-6.347-7.633-17.678-8.676-25.311-2.329C637.76,238.223,636.717,249.554,643.064,257.186"/>
<g>
	<defs>
		<path id="SVGID_2_" d="M645.391,231.876c-7.631,6.346-8.674,17.678-2.328,25.31c6.347,7.633,17.677,8.676,25.312,2.328
			c7.631-6.346,8.673-17.678,2.327-25.31c-3.555-4.274-8.673-6.482-13.829-6.482C652.822,227.722,648.75,229.084,645.391,231.876"/>
	</defs>
	<clipPath id="SVGID_3_">
		<use xlink:href="#SVGID_2_"  overflow="visible"/>
	</clipPath>
	<polygon clip-path="url(#SVGID_3_)" fill="#222943" points="641.383,227.994 679.203,256.996 673.065,226.123 	"/>
</g>
<path fill="#DBB69E" d="M659.962,245.17c1.778,2.137,4.951,2.43,7.089,0.652c2.137-1.777,2.429-4.951,0.651-7.089
	s-4.95-2.43-7.088-0.651C658.477,239.859,658.185,243.032,659.962,245.17"/>
<path fill="#E1CA7B" d="M742.028,242.742l0.373,37.672l-53.692,8.365l-10.24-42.883l4.377-1.921
	c8.193-3.597,17.282-4.63,26.073-2.964l8.414,0.734L742.028,242.742z"/>
<path fill="#2C385B" d="M742.401,280.414l37.594,2.546l0.009-3.649c0.052-20.773-17.218-37.404-37.976-36.568L742.401,280.414z"/>
<path fill="#2C385B" d="M779.995,282.959l-26.183,55.209l0.286-7.149l19.35,87.99l-20.315,0.244l-23.49-82.05
	c-0.491-1.714-0.524-3.448-0.173-5.074l0.459-2.077l12.678-57.722L779.995,282.959z"/>
<path fill="#FFFFFF" d="M723.062,402.105l-274.989-52.628c-1.421-0.272-2.353-1.646-2.081-3.065l9.219-48.166
	c0.271-1.42,1.645-2.352,3.065-2.08l274.99,52.629c1.421,0.271,2.353,1.644,2.08,3.064l-9.218,48.165
	C725.856,401.445,724.484,402.378,723.062,402.105"/>
<path fill="#9AAAD3" d="M715.792,385.993l-6.113-9.86c1.875-1.772,3.239-4.12,3.761-6.843c1.321-6.906-3.222-13.597-10.126-14.919
	c-6.906-1.321-13.598,3.22-14.919,10.126c-1.321,6.905,3.22,13.597,10.126,14.919c2.74,0.525,5.441,0.113,7.791-0.99l6.022,9.711
	L715.792,385.993z M709.448,368.525c-0.899,4.703-5.461,7.799-10.163,6.898c-4.703-0.898-7.796-5.461-6.896-10.163
	c0.9-4.702,5.459-7.797,10.161-6.896C707.252,359.264,710.347,363.823,709.448,368.525"/>
<path fill="#DBB69E" d="M666.97,369.635c-3.174-3.559-8.574-3.572-12.061-0.031c-3.487,3.541-3.741,9.297-0.567,12.855
	s8.574,3.573,12.061,0.031C669.89,378.949,670.144,373.194,666.97,369.635"/>
<path fill="#E1CA7B" d="M672.548,374.447l-15.59-10.692l34.355-50.094l-9.035-52.437l18.634-3.211l9.686,56.223
	c0.419,2.427-0.127,4.918-1.521,6.951L672.548,374.447z"/>
<path fill="#C9D6ED" d="M823.441,958.22h-278.17c0-11.821,9.584-21.405,21.406-21.405h235.357
	C813.857,936.814,823.441,946.398,823.441,958.22"/>
<path fill="#DBB69E" d="M365.878,1058.775c-0.037-1.046-2.432-26.773-2.432-26.773l13.366-2.679l2.601,26.757L365.878,1058.775z"/>
<path fill="#1C1B1B" d="M404.31,1056.92l-37.273,7.637l-2.293-11.449l25.736-5.273C396.808,1046.523,403,1050.593,404.31,1056.92"/>
<path fill="#293448" d="M316.095,913.914l52.441,40.233l1.658,1.271c2.832,2.174,4.457,5.389,4.75,8.687l6.401,73.743l-18.606,2.757
	l-12.453-75.763l6.408,9.957l-62.056-25.966L316.095,913.914z"/>
<path fill="#D8BF72" d="M282.566,938.005l45.215-16.086c3.774-1.169,5.886-5.177,4.717-8.951l-19.19-61.938l-36.103,11.186
	c-12.955,4.014-20.204,17.771-16.19,30.727L282.566,938.005z"/>
<path fill="#5F85BF" d="M418.744,922.413l-89.466,22.5c-2.222,0.56-4.474-0.789-5.032-3.01l-22.5-89.466
	c-0.559-2.221,0.789-4.474,3.01-5.032l89.467-22.5c2.22-0.558,4.473,0.789,5.031,3.01l22.5,89.466
	C422.312,919.602,420.964,921.854,418.744,922.413"/>
<path fill="#DBB69E" d="M282.235,1080.192c0.243-1.019,3.901-26.424,3.901-26.424l13.597,0.987l-3.735,26.449L282.235,1080.192z"/>
<path fill="#2A2631" d="M320.193,1087.429l-38.047-0.102l0.082-11.677l26.271,0.07
	C314.962,1075.726,320.197,1080.967,320.193,1087.429"/>
<path fill="#2C385B" d="M313.754,924.079l6.657,52.994l0.472,2.716c0.229,1.318,0.171,2.669-0.108,3.897l-17.242,81.834
	l-20.344-1.486l11.268-83.019l0.365,6.61l-12.668-51.555L313.754,924.079z"/>
<path fill="#DBB69E" d="M370.449,897.566c-1.132,4.805-5.943,7.781-10.749,6.649c-4.804-1.132-7.781-5.944-6.649-10.749
	c1.133-4.803,5.944-7.781,10.75-6.649C368.603,887.949,371.581,892.762,370.449,897.566"/>
<polygon fill="#DBB69E" points="356.455,890.693 338.535,900.498 344.175,908.761 365.196,899.047 "/>
<path fill="#DBB69E" d="M305.912,824.562l-4.299-1.494l-1.98,5.667l4.107,0.682l2.604-1.863
	C307.465,826.75,307.215,825.015,305.912,824.562"/>
<path fill="#DBB69E" d="M304.068,833.429c-1.637,9.879-10.975,16.562-20.854,14.923c-9.879-1.638-16.561-10.974-14.922-20.854
	c1.637-9.879,10.974-16.561,20.853-14.923C299.025,814.213,305.706,823.55,304.068,833.429"/>
<g>
	<defs>
		<path id="SVGID_1_" d="M268.291,827.498c-1.637,9.88,5.045,19.216,14.924,20.854c9.88,1.639,19.217-5.043,20.854-14.923
			c1.637-9.879-5.044-19.216-14.923-20.853c-1.005-0.167-2.003-0.247-2.987-0.247C277.449,812.329,269.763,818.624,268.291,827.498"
			/>
	</defs>
	<clipPath id="SVGID_4_">
		<use xlink:href="#SVGID_1_"  overflow="visible"/>
	</clipPath>
	<polygon clip-path="url(#SVGID_4_)" fill="#222943" points="290.658,807.153 272.5,851.677 262.116,821.666 	"/>
</g>
<path fill="#DBB69E" d="M283.23,831.575c-0.459,2.769-3.074,4.638-5.84,4.181c-2.767-0.459-4.639-3.074-4.18-5.841
	c0.458-2.767,3.072-4.639,5.84-4.18C281.816,826.194,283.687,828.809,283.23,831.575"/>
<path fill="#222943" d="M270.832,843.688c-3.475,8.045-12.811,11.75-20.855,8.276c-8.045-3.473-11.75-12.811-8.276-20.855
	s12.811-11.75,20.856-8.275C270.601,826.307,274.306,835.644,270.832,843.688"/>
<path fill="#DBB69E" d="M294.021,845.625c0.074,1.046,1.785,25.102,1.785,25.102l-16.433-9.343l0.614-15.338L294.021,845.625z"/>
<path fill="#E1CA7B" d="M304.85,938.055c-3.313,0.11-6.593-1.413-8.616-4.301l-31.968-45.639c-3.2-4.569-2.091-10.867,2.478-14.067
	c4.569-3.201,10.869-2.092,14.068,2.478l26.665,38.068l39.132-22.527l10.081,17.506l-47.143,27.139
	C308.067,937.563,306.455,938.001,304.85,938.055"/>
<path fill="#FFFFFF" d="M574.665,495.461H399.277c-0.574,0-1.041-0.467-1.041-1.043v-7.469c0-0.574,0.467-1.042,1.041-1.042h175.388
	c0.575,0,1.041,0.468,1.041,1.042v7.469C575.706,494.994,575.24,495.461,574.665,495.461"/>
<path fill="#FFFFFF" d="M574.665,555.606H399.277c-0.574,0-1.041-0.466-1.041-1.041v-7.47c0-0.575,0.467-1.042,1.041-1.042h175.388
	c0.575,0,1.041,0.467,1.041,1.042v7.47C575.706,555.141,575.24,555.606,574.665,555.606"/>
<path fill="#FFFFFF" d="M614.714,525.406H399.277c-0.574,0-1.041-0.466-1.041-1.042v-7.469c0-0.575,0.467-1.042,1.041-1.042h215.438
	c0.575,0,1.041,0.467,1.041,1.042v7.469C615.755,524.94,615.29,525.406,614.714,525.406"/>
<path fill="#FFFFFF" d="M876.601,174.034h-112.16c0,0,8.219-33.686,37.227-33.686c21.492,0,32.647,13.592,36.989,20.637
	C847.133,157.669,865.386,153.645,876.601,174.034"/>
<path fill="#FFFFFF" d="M1040.312,281.438c5.518,0,10.687,1.496,15.173,4.087c8.57-14.946,24.383-25.011,42.524-25.011
	c16.942,0,31.881,8.758,40.765,22.088c4.689-16.059,19.203-27.771,36.402-27.771c19.52,0,35.582,15.083,37.743,34.491
	c1.569-0.252,3.166-0.421,4.807-0.421c11.906,0,22.227,6.895,27.407,16.991H1010.2
	C1013.412,291.881,1025.658,281.438,1040.312,281.438"/>
</svg>
