<?xml version="1.0" encoding="utf-8"?>
<!-- Generator: Adobe Illustrator 15.0.0, SVG Export Plug-In  -->
<!DOCTYPE svg PUBLIC "-//W3C//DTD SVG 1.1//EN" "http://www.w3.org/Graphics/SVG/1.1/DTD/svg11.dtd" [
	<!ENTITY ns_flows "http://ns.adobe.com/Flows/1.0/">
]>
<svg version="1.1"
	 xmlns="http://www.w3.org/2000/svg" xmlns:xlink="http://www.w3.org/1999/xlink" xmlns:a="http://ns.adobe.com/AdobeSVGViewerExtensions/3.0/"
	 x="0px" y="0px" width="500px" height="150px" viewBox="-28.104 -34.229 500 150" enable-background="new -28.104 -34.229 500 150"
	 xml:space="preserve">
<defs>
</defs>
<path fill="#FFFFFF" d="M108.21,32.5H0C0,32.5,7.928,0,35.914,0c20.737,0,31.499,13.113,35.687,19.91
	C79.779,16.71,97.39,12.828,108.21,32.5"/>
<path fill="#FFFFFF" d="M246.186,57.948c5.322,0,10.311,1.443,14.639,3.942c8.268-14.42,23.523-24.128,41.025-24.128
	c16.346,0,30.76,8.45,39.33,21.311c4.523-15.495,18.527-26.794,35.121-26.794c18.832,0,34.328,14.551,36.412,33.277
	c1.516-0.242,3.057-0.405,4.639-0.405c11.486,0,21.443,6.651,26.441,16.393H217.134C220.231,68.024,232.047,57.948,246.186,57.948"
	/>
</svg>
