<?xml version="1.0" encoding="utf-8"?>
<!-- Generator: Adobe Illustrator 15.0.0, SVG Export Plug-In . SVG Version: 6.00 Build 0)  -->
<!DOCTYPE svg PUBLIC "-//W3C//DTD SVG 1.1//EN" "http://www.w3.org/Graphics/SVG/1.1/DTD/svg11.dtd">
<svg version="1.1" xmlns="http://www.w3.org/2000/svg" xmlns:xlink="http://www.w3.org/1999/xlink" x="0px" y="0px" width="40px"
	 height="40px" viewBox="0 0 40 40" enable-background="new 0 0 40 40" xml:space="preserve">
<g id="home" display="none">
	<path display="inline" fill="#FFFFFF" d="M33.422,37.437h-9.563c-0.869,0-1.578-0.706-1.578-1.578v-8.167h-4.197v8.167
		c0,0.872-0.708,1.578-1.579,1.578H6.577C5.706,37.437,5,36.73,5,35.858v-19.49c0-0.444,0.187-0.867,0.515-1.167L18.938,2.974
		c0.602-0.548,1.523-0.548,2.125,0l13.421,12.227c0.329,0.3,0.517,0.723,0.517,1.167v19.49C35,36.73,34.294,37.437,33.422,37.437
		 M25.438,34.28h6.404V17.065L20.001,6.276L8.155,17.065V34.28h6.773v-8.166c0-0.874,0.708-1.58,1.578-1.58h7.354
		c0.873,0,1.579,0.706,1.579,1.58V34.28z"/>
</g>
<g id="favorite">
	<path fill="#FFFFFF" d="M13.209,34.459c-0.82,0-1.638-0.259-2.352-0.778c-1.429-1.037-2-2.793-1.456-4.472l1.422-4.378
		c0.165-0.505-0.014-1.053-0.443-1.362l-3.722-2.705c-1.429-1.039-2-2.795-1.455-4.476c0.546-1.679,2.042-2.764,3.807-2.764h4.602
		c0.53,0,0.996-0.338,1.161-0.843l1.42-4.376C16.74,6.625,18.235,5.54,20,5.54c1.767,0,3.262,1.086,3.806,2.765l1.423,4.376
		c0.162,0.505,0.629,0.843,1.158,0.843h4.603c1.766,0,3.261,1.085,3.806,2.764c0.547,1.68-0.023,3.437-1.452,4.476l-3.724,2.705
		c-0.429,0.31-0.606,0.859-0.442,1.362l1.422,4.378c0.545,1.679-0.025,3.435-1.454,4.472c-1.429,1.039-3.276,1.039-4.706,0.002
		l-3.721-2.705c-0.43-0.313-1.005-0.313-1.434,0l-3.722,2.703C14.845,34.2,14.027,34.459,13.209,34.459 M20,27.96
		c0.824,0,1.648,0.255,2.353,0.768l3.722,2.704c0.664,0.483,1.265,0.123,1.435,0c0.167-0.123,0.698-0.582,0.442-1.364l-1.422-4.376
		c-0.534-1.655,0.047-3.451,1.455-4.474l3.723-2.705c0.666-0.483,0.508-1.167,0.443-1.366c-0.065-0.197-0.34-0.842-1.161-0.842
		h-4.603c-1.736,0-3.267-1.111-3.805-2.765l-1.423-4.377C20.906,8.382,20.208,8.322,20,8.322c-0.208,0-0.907,0.06-1.16,0.842
		l-1.422,4.377c-0.538,1.653-2.068,2.765-3.806,2.765H9.011c-0.822,0-1.095,0.645-1.16,0.842c-0.064,0.199-0.224,0.883,0.443,1.366
		l3.723,2.705c1.408,1.022,1.991,2.821,1.451,4.474l-1.419,4.376c-0.256,0.782,0.274,1.241,0.443,1.364
		c0.169,0.123,0.768,0.484,1.434,0l3.723-2.704C18.352,28.215,19.176,27.96,20,27.96"/>
</g>
<g id="notify" display="none">
	<g display="inline">
		<g>
			<defs>
				<path id="SVGID_1_" d="M22.299,14.016c0,2.206,1.789,3.995,3.997,3.995c2.206,0,3.996-1.789,3.996-3.995
					c0-2.208-1.79-3.997-3.996-3.997C24.088,10.019,22.299,11.808,22.299,14.016"/>
			</defs>
			<clipPath id="SVGID_2_">
				<use xlink:href="#SVGID_1_"  overflow="visible"/>
			</clipPath>
			<rect x="22.299" y="10.019" clip-path="url(#SVGID_2_)" fill="#FFFFFF" width="7.993" height="7.992"/>
			<path clip-path="url(#SVGID_2_)" fill="#FFFFFF" d="M30.544,18.704h-4.157h-4.191v0.666c-0.008-1.239,1.852-2.258,4.158-2.275
				c2.303-0.019,4.18,0.97,4.19,2.209V18.704z"/>
			<path clip-path="url(#SVGID_2_)" fill="#FBFBFB" d="M30.466,18.704h-4.079h-4.113v0.665c-0.01-1.216,1.816-2.215,4.08-2.233
				c2.262-0.018,4.104,0.953,4.112,2.168V18.704z"/>
			<path clip-path="url(#SVGID_2_)" fill="#F9F9F9" d="M30.389,18.704h-4.002h-4.036v0.664c-0.01-1.192,1.782-2.173,4.002-2.19
				c2.22-0.018,4.026,0.935,4.036,2.127V18.704z"/>
			<path clip-path="url(#SVGID_2_)" fill="#F7F7F7" d="M30.312,18.704h-3.925h-3.959v0.663c-0.01-1.169,1.748-2.131,3.925-2.148
				c2.178-0.017,3.95,0.917,3.959,2.087V18.704z"/>
			<path clip-path="url(#SVGID_2_)" fill="#F6F6F5" d="M30.234,18.704h-3.85h-3.879v0.663c-0.01-1.147,1.713-2.09,3.848-2.106
				c2.134-0.017,3.872,0.899,3.881,2.045V18.704z"/>
			<path clip-path="url(#SVGID_2_)" fill="#F4F4F4" d="M30.157,18.704h-3.771h-3.805v0.662c-0.008-1.123,1.68-2.048,3.771-2.064
				s3.795,0.881,3.804,2.005V18.704z"/>
			<path clip-path="url(#SVGID_2_)" fill="#F2F2F2" d="M30.08,18.704h-3.693H22.66v0.662c-0.01-1.101,1.645-2.006,3.693-2.023
				c2.05-0.015,3.718,0.863,3.727,1.965V18.704z"/>
			<path clip-path="url(#SVGID_2_)" fill="#F0F0F0" d="M30.002,18.704h-3.617h-3.648v0.661c-0.008-1.078,1.611-1.964,3.619-1.98
				c2.004-0.015,3.639,0.845,3.646,1.923V18.704z"/>
			<path clip-path="url(#SVGID_2_)" fill="#EFEFEE" d="M29.925,18.704h-3.54h-3.57v0.661c-0.009-1.056,1.577-1.923,3.541-1.939
				c1.963-0.015,3.562,0.827,3.569,1.882V18.704z"/>
			<path clip-path="url(#SVGID_2_)" fill="#ECECEC" d="M29.848,18.704h-3.463h-3.493v0.66c-0.008-1.032,1.542-1.881,3.464-1.896
				s3.484,0.809,3.492,1.841V18.704z"/>
			<path clip-path="url(#SVGID_2_)" fill="#ECECEB" d="M29.771,18.704h-3.388h-3.414v0.659c-0.008-1.009,1.509-1.839,3.387-1.854
				c1.878-0.014,3.407,0.792,3.415,1.801V18.704z"/>
			<path clip-path="url(#SVGID_2_)" fill="#EAEAEA" d="M29.693,18.704h-3.311h-3.336v0.658c-0.008-0.986,1.473-1.796,3.309-1.811
				c1.836-0.014,3.33,0.773,3.338,1.759V18.704z"/>
			<path clip-path="url(#SVGID_2_)" fill="#E8E8E8" d="M29.616,18.704h-3.231h-3.262v0.658c-0.007-0.963,1.439-1.755,3.232-1.769
				c1.793-0.014,3.253,0.755,3.261,1.718V18.704z"/>
			<path clip-path="url(#SVGID_2_)" fill="#E7E7E7" d="M29.539,18.704h-3.156h-3.182v0.657c-0.008-0.94,1.404-1.713,3.154-1.727
				c1.75-0.014,3.176,0.737,3.184,1.677V18.704z"/>
			<path clip-path="url(#SVGID_2_)" fill="#E5E5E5" d="M29.462,18.704h-3.079h-3.105v0.657c-0.006-0.917,1.373-1.672,3.08-1.685
				c1.707-0.014,3.097,0.719,3.104,1.636V18.704z"/>
			<path clip-path="url(#SVGID_2_)" fill="#E4E4E4" d="M29.384,18.704h-3.002h-3.026v0.656c-0.007-0.894,1.338-1.63,3.002-1.643
				c1.664-0.013,3.02,0.701,3.026,1.596V18.704z"/>
			<path clip-path="url(#SVGID_2_)" fill="#E3E3E2" d="M29.307,18.704h-2.925h-2.949v0.655c-0.007-0.871,1.304-1.588,2.925-1.6
				c1.622-0.013,2.942,0.683,2.949,1.554V18.704z"/>
			<path clip-path="url(#SVGID_2_)" fill="#E1E1E1" d="M29.229,18.704h-2.849H23.51v0.655c-0.008-0.848,1.269-1.547,2.848-1.559
				c1.58-0.013,2.865,0.666,2.872,1.514V18.704z"/>
			<path clip-path="url(#SVGID_2_)" fill="#E0E0DF" d="M29.152,18.704h-2.771h-2.793v0.654c-0.007-0.825,1.233-1.504,2.77-1.516
				c1.537-0.013,2.788,0.647,2.795,1.472V18.704z"/>
			<path clip-path="url(#SVGID_2_)" fill="#DFDFDE" d="M29.075,18.704h-2.694h-2.717v0.653c-0.006-0.802,1.2-1.462,2.694-1.474
				c1.493-0.012,2.71,0.63,2.717,1.432V18.704z"/>
			<path clip-path="url(#SVGID_2_)" fill="#DDDDDD" d="M28.998,18.704h-2.617h-2.639v0.653c-0.008-0.78,1.165-1.421,2.615-1.432
				c1.453-0.012,2.634,0.611,2.641,1.39V18.704z"/>
			<path clip-path="url(#SVGID_2_)" fill="#DCDCDC" d="M28.92,18.704h-2.539h-2.563v0.652c-0.004-0.756,1.131-1.379,2.541-1.39
				c1.408-0.011,2.555,0.593,2.561,1.35V18.704z"/>
			<path clip-path="url(#SVGID_2_)" fill="#DBDBDA" d="M28.843,18.704H26.38h-2.483v0.652c-0.006-0.734,1.096-1.338,2.463-1.348
				c1.366-0.011,2.478,0.575,2.483,1.309V18.704z"/>
			<path clip-path="url(#SVGID_2_)" fill="#DADAD9" d="M28.766,18.704h-2.387h-2.405v0.651c-0.006-0.711,1.063-1.296,2.386-1.306
				c1.323-0.01,2.4,0.557,2.406,1.269V18.704z"/>
			<path clip-path="url(#SVGID_2_)" fill="#D9D9D8" d="M28.688,18.704h-2.31h-2.328v0.65c-0.006-0.687,1.029-1.253,2.31-1.263
				c1.28-0.01,2.323,0.539,2.328,1.227V18.704z"/>
			<path clip-path="url(#SVGID_2_)" fill="#D8D8D7" d="M28.611,18.704h-2.232h-2.25v0.65c-0.006-0.665,0.993-1.212,2.231-1.221
				c1.237-0.01,2.245,0.521,2.251,1.186V18.704z"/>
			<path clip-path="url(#SVGID_2_)" fill="#D7D7D6" d="M28.534,18.704h-2.155h-2.173v0.649c-0.005-0.642,0.959-1.17,2.154-1.179
				c1.194-0.01,2.169,0.503,2.174,1.145V18.704z"/>
			<path clip-path="url(#SVGID_2_)" fill="#D6D6D5" d="M28.456,18.704h-2.077h-2.096v0.648c-0.005-0.618,0.925-1.127,2.076-1.137
				c1.154-0.009,2.093,0.486,2.097,1.105V18.704z"/>
			<path clip-path="url(#SVGID_2_)" fill="#D5D5D4" d="M28.379,18.704h-2.001h-2.019v0.648c-0.004-0.596,0.892-1.086,2.002-1.095
				c1.11-0.009,2.013,0.467,2.018,1.063V18.704z"/>
			<path clip-path="url(#SVGID_2_)" fill="#D4D4D3" d="M28.302,18.704h-1.924h-1.94v0.647c-0.005-0.573,0.857-1.044,1.924-1.053
				c1.067-0.008,1.937,0.45,1.94,1.023V18.704z"/>
			<path clip-path="url(#SVGID_2_)" fill="#D3D3D2" d="M28.225,18.704h-1.848h-1.862v0.647c-0.005-0.55,0.821-1.003,1.849-1.011
				c1.023-0.008,1.856,0.431,1.861,0.982V18.704z"/>
			<path clip-path="url(#SVGID_2_)" fill="#D2D2D1" d="M28.147,18.704h-1.771h-1.785v0.646c-0.004-0.527,0.789-0.961,1.771-0.969
				c0.981-0.008,1.781,0.414,1.785,0.942V18.704z"/>
			<path clip-path="url(#SVGID_2_)" fill="#D1D1D0" d="M28.07,18.704h-1.693H24.67v0.646c-0.004-0.505,0.754-0.92,1.692-0.927
				c0.938-0.008,1.704,0.396,1.708,0.9V18.704z"/>
			<path clip-path="url(#SVGID_2_)" fill="#D0D0CF" d="M27.993,18.704h-1.616h-1.631v0.645c-0.003-0.481,0.721-0.878,1.616-0.885
				c0.897-0.007,1.627,0.378,1.631,0.86V18.704z"/>
			<path clip-path="url(#SVGID_2_)" fill="#CFCFCF" d="M27.916,18.704h-1.54h-1.552v0.645c-0.004-0.459,0.686-0.836,1.539-0.843
				c0.854-0.007,1.549,0.36,1.553,0.818V18.704z"/>
			<path clip-path="url(#SVGID_2_)" fill="#CFCFCE" d="M27.838,18.704h-1.462H24.9v0.644c-0.002-0.436,0.652-0.794,1.463-0.801
				c0.812-0.006,1.472,0.342,1.475,0.778V18.704z"/>
			<path clip-path="url(#SVGID_2_)" fill="#CECECD" d="M27.761,18.704h-1.386h-1.396v0.643c-0.003-0.412,0.617-0.752,1.387-0.758
				c0.767-0.006,1.393,0.324,1.396,0.736V18.704z"/>
			<path clip-path="url(#SVGID_2_)" fill="#CDCDCC" d="M27.684,18.704h-1.309h-1.319v0.643c-0.003-0.39,0.583-0.711,1.31-0.716
				c0.725-0.006,1.315,0.305,1.318,0.695V18.704z"/>
			<path clip-path="url(#SVGID_2_)" fill="#CDCDCC" d="M27.606,18.704h-1.231h-1.242v0.642c-0.004-0.367,0.549-0.669,1.231-0.674
				c0.683-0.005,1.239,0.287,1.242,0.655V18.704z"/>
			<path clip-path="url(#SVGID_2_)" fill="#CCCCCB" d="M27.529,18.704h-1.154H27.529z"/>
			<path clip-path="url(#SVGID_2_)" fill="#CCCCCB" d="M27.452,18.704h-1.078H27.452z"/>
			<path clip-path="url(#SVGID_2_)" fill="#CBCBCA" d="M27.374,18.704h-1H27.374z"/>
			<path clip-path="url(#SVGID_2_)" fill="#CBCBCA" d="M27.297,18.704h-0.923H27.297z"/>
			<path clip-path="url(#SVGID_2_)" fill="#CACAC9" d="M27.22,18.704h-0.847H27.22z"/>
			<path clip-path="url(#SVGID_2_)" fill="#CACAC9" d="M27.143,18.704h-0.77H27.143z"/>
			<path clip-path="url(#SVGID_2_)" fill="#C9C9C8" d="M27.065,18.704h-0.692H27.065z"/>
			<path clip-path="url(#SVGID_2_)" fill="#C9C9C8" d="M26.988,18.704h-0.616H26.988z"/>
			<path clip-path="url(#SVGID_2_)" fill="#C9C9C8" d="M26.911,18.704h-0.539H26.911z"/>
			<path clip-path="url(#SVGID_2_)" fill="#C9C9C8" d="M26.834,18.704h-0.462H26.834z"/>
			<path clip-path="url(#SVGID_2_)" fill="#C8C8C7" d="M26.756,18.704h-0.385H26.756z"/>
			<path clip-path="url(#SVGID_2_)" fill="#C8C8C7" d="M26.679,18.704h-0.308H26.679z"/>
			<path clip-path="url(#SVGID_2_)" fill="#C8C8C7" d="M26.602,18.704h-0.23H26.602z"/>
			<path clip-path="url(#SVGID_2_)" fill="#C8C8C7" d="M26.524,18.704h-0.153H26.524z"/>
			<path clip-path="url(#SVGID_2_)" fill="#C8C8C7" d="M26.447,18.704H26.37H26.447z"/>
		</g>
		<path fill="#FFFFFF" d="M27.236,31.035h-16.65c-0.574,0-1.039-0.465-1.039-1.039V12.457c0-0.573,0.465-1.039,1.039-1.039h9.102
			c0.573,0,1.039,0.466,1.039,1.039c0,0.574-0.466,1.039-1.039,1.039h-8.063v15.461h14.573v-7.73c0-0.574,0.465-1.039,1.038-1.039
			c0.574,0,1.039,0.465,1.039,1.039v8.77C28.275,30.57,27.811,31.035,27.236,31.035"/>
	</g>
</g>
<g id="folder" display="none">
	<g display="inline">
		<path fill="#FFFFFF" d="M33.558,34.692H6.442C5.646,34.692,5,34.047,5,33.25V6.749c0-0.796,0.646-1.441,1.442-1.441h8.319
			c0.359,0,0.703,0.133,0.969,0.374l6.369,5.789h11.459c0.797,0,1.442,0.644,1.442,1.441V33.25
			C35,34.047,34.354,34.692,33.558,34.692 M7.883,31.808h24.232V14.354H21.54c-0.357,0-0.704-0.133-0.969-0.375l-6.368-5.788H7.883
			V31.808z"/>
	</g>
</g>
<g id="user" display="none">
	<path display="inline" fill="#FFFFFF" d="M20,37.489c-5.274,0-10.291-1.704-14.507-4.929C5.183,32.322,5,31.955,5,31.563v-2.671
		c0-5.032,3.328-9.438,7.943-10.983c-1.445-1.67-2.261-3.813-2.261-6.081c0-5.137,4.182-9.317,9.317-9.317
		c5.14,0,9.319,4.181,9.319,9.317c0,2.269-0.816,4.412-2.259,6.081C31.673,19.455,35,23.86,35,28.893v2.671
		c0,0.392-0.182,0.759-0.492,0.997C30.291,35.785,25.272,37.489,20,37.489 M7.508,30.937c3.672,2.646,7.978,4.045,12.492,4.045
		c4.516,0,8.821-1.398,12.492-4.045v-2.044c0-4.647-3.625-8.617-8.253-9.029c-0.534-0.05-0.978-0.432-1.105-0.95
		c-0.126-0.522,0.088-1.065,0.538-1.355c1.966-1.263,3.14-3.404,3.14-5.729c0-3.754-3.055-6.81-6.812-6.81
		c-3.753,0-6.81,3.056-6.81,6.81c0,2.325,1.171,4.467,3.137,5.729c0.453,0.29,0.669,0.833,0.542,1.355
		c-0.129,0.519-0.573,0.9-1.105,0.95c-4.629,0.412-8.257,4.379-8.257,9.029V30.937z M33.746,31.563h0.008H33.746z"/>
</g>
</svg>
