<?xml version="1.0" encoding="utf-8"?>
<!-- Generator: Adobe Illustrator 15.0.0, SVG Export Plug-In . SVG Version: 6.00 Build 0)  -->
<!DOCTYPE svg PUBLIC "-//W3C//DTD SVG 1.1//EN" "http://www.w3.org/Graphics/SVG/1.1/DTD/svg11.dtd">
<svg version="1.1" xmlns="http://www.w3.org/2000/svg" xmlns:xlink="http://www.w3.org/1999/xlink" x="0px" y="0px" width="40px"
	 height="40px" viewBox="0 0 40 40" enable-background="new 0 0 40 40" xml:space="preserve">
<g id="home" display="none">
	<path display="inline" fill="#FFFFFF" d="M33.422,37.437h-9.563c-0.869,0-1.578-0.706-1.578-1.578v-8.167h-4.197v8.167
		c0,0.872-0.708,1.578-1.579,1.578H6.577C5.706,37.437,5,36.73,5,35.858v-19.49c0-0.444,0.187-0.867,0.515-1.167L18.938,2.974
		c0.602-0.548,1.523-0.548,2.125,0l13.421,12.227c0.329,0.3,0.517,0.723,0.517,1.167v19.49C35,36.73,34.294,37.437,33.422,37.437
		 M25.438,34.28h6.404V17.065L20.001,6.276L8.155,17.065V34.28h6.773v-8.166c0-0.874,0.708-1.58,1.578-1.58h7.354
		c0.873,0,1.579,0.706,1.579,1.58V34.28z"/>
</g>
<g id="favorite" display="none">
	<path display="inline" fill="#FFFFFF" d="M13.209,34.459c-0.82,0-1.638-0.259-2.352-0.778c-1.429-1.037-2-2.793-1.456-4.472
		l1.422-4.378c0.165-0.505-0.014-1.053-0.443-1.362l-3.722-2.705c-1.429-1.039-2-2.795-1.455-4.476
		c0.546-1.679,2.042-2.764,3.807-2.764h4.602c0.53,0,0.996-0.338,1.161-0.843l1.42-4.376C16.74,6.625,18.235,5.54,20,5.54
		c1.767,0,3.262,1.086,3.806,2.765l1.423,4.376c0.162,0.505,0.629,0.843,1.158,0.843h4.603c1.766,0,3.261,1.085,3.806,2.764
		c0.547,1.68-0.023,3.437-1.452,4.476l-3.724,2.705c-0.429,0.31-0.606,0.859-0.442,1.362l1.422,4.378
		c0.545,1.679-0.025,3.435-1.454,4.472c-1.429,1.039-3.276,1.039-4.706,0.002l-3.721-2.705c-0.43-0.313-1.005-0.313-1.434,0
		l-3.722,2.703C14.845,34.2,14.027,34.459,13.209,34.459 M20,27.96c0.824,0,1.648,0.255,2.353,0.768l3.722,2.704
		c0.664,0.483,1.265,0.123,1.435,0c0.167-0.123,0.698-0.582,0.442-1.364l-1.422-4.376c-0.534-1.655,0.047-3.451,1.455-4.474
		l3.723-2.705c0.666-0.483,0.508-1.167,0.443-1.366c-0.065-0.197-0.34-0.842-1.161-0.842h-4.603c-1.736,0-3.267-1.111-3.805-2.765
		l-1.423-4.377C20.906,8.382,20.208,8.322,20,8.322c-0.208,0-0.907,0.06-1.16,0.842l-1.422,4.377
		c-0.538,1.653-2.068,2.765-3.806,2.765H9.011c-0.822,0-1.095,0.645-1.16,0.842c-0.064,0.199-0.224,0.883,0.443,1.366l3.723,2.705
		c1.408,1.022,1.991,2.821,1.451,4.474l-1.419,4.376c-0.256,0.782,0.274,1.241,0.443,1.364c0.169,0.123,0.768,0.484,1.434,0
		l3.723-2.704C18.352,28.215,19.176,27.96,20,27.96"/>
</g>
<g id="notify">
	<g>
		<g>
			<defs>
				<path id="SVGID_1_" d="M23.36,11.111c0,3.19,2.587,5.777,5.779,5.777s5.78-2.587,5.78-5.777c0-3.193-2.588-5.78-5.78-5.78
					S23.36,7.918,23.36,11.111"/>
			</defs>
			<clipPath id="SVGID_2_">
				<use xlink:href="#SVGID_1_"  overflow="visible"/>
			</clipPath>
			<rect x="23.36" y="5.331" clip-path="url(#SVGID_2_)" fill="#FFFFFF" width="11.56" height="11.558"/>
			<path clip-path="url(#SVGID_2_)" fill="#FFFFFF" d="M35.284,17.891h-6.012h-6.062v0.963c-0.011-1.792,2.678-3.265,6.013-3.29
				c3.331-0.027,6.045,1.402,6.061,3.195V17.891z"/>
			<path clip-path="url(#SVGID_2_)" fill="#FBFBFB" d="M35.171,17.891h-5.898h-5.949v0.961c-0.014-1.758,2.627-3.203,5.9-3.229
				c3.271-0.026,5.936,1.378,5.947,3.136V17.891z"/>
			<path clip-path="url(#SVGID_2_)" fill="#F9F9F9" d="M35.06,17.891h-5.787h-5.837v0.96c-0.015-1.724,2.576-3.142,5.787-3.167
				c3.211-0.026,5.823,1.353,5.837,3.076V17.891z"/>
			<path clip-path="url(#SVGID_2_)" fill="#F7F7F7" d="M34.948,17.891h-5.676h-5.726v0.959c-0.015-1.69,2.528-3.082,5.676-3.106
				c3.149-0.025,5.713,1.326,5.726,3.018V17.891z"/>
			<path clip-path="url(#SVGID_2_)" fill="#F6F6F5" d="M34.836,17.891H29.27H23.66v0.959c-0.016-1.659,2.477-3.022,5.563-3.045
				c3.086-0.025,5.601,1.3,5.612,2.958V17.891z"/>
			<path clip-path="url(#SVGID_2_)" fill="#F4F4F4" d="M34.725,17.891h-5.452h-5.502v0.958c-0.012-1.624,2.428-2.961,5.453-2.985
				c3.025-0.023,5.488,1.273,5.501,2.899V17.891z"/>
			<path clip-path="url(#SVGID_2_)" fill="#F2F2F2" d="M34.613,17.891h-5.341h-5.39v0.958c-0.014-1.593,2.378-2.901,5.341-2.925
				c2.966-0.022,5.377,1.247,5.39,2.841V17.891z"/>
			<path clip-path="url(#SVGID_2_)" fill="#F0F0F0" d="M34.5,17.891h-5.23h-5.277v0.957c-0.01-1.56,2.331-2.84,5.235-2.864
				c2.897-0.021,5.262,1.222,5.272,2.781V17.891z"/>
			<path clip-path="url(#SVGID_2_)" fill="#EFEFEE" d="M34.389,17.891H29.27h-5.163v0.957c-0.014-1.528,2.281-2.781,5.121-2.804
				c2.838-0.022,5.149,1.195,5.161,2.721V17.891z"/>
			<path clip-path="url(#SVGID_2_)" fill="#ECECEC" d="M34.277,17.891H29.27h-5.052v0.955c-0.011-1.493,2.229-2.72,5.01-2.742
				c2.778-0.021,5.038,1.17,5.05,2.662V17.891z"/>
			<path clip-path="url(#SVGID_2_)" fill="#ECECEB" d="M34.165,17.891h-4.898h-4.938v0.954c-0.011-1.46,2.182-2.66,4.898-2.682
				c2.716-0.021,4.927,1.146,4.938,2.604V17.891z"/>
			<path clip-path="url(#SVGID_2_)" fill="#EAEAEA" d="M34.054,17.891h-4.787h-4.824v0.952c-0.012-1.427,2.129-2.598,4.785-2.619
				c2.655-0.021,4.814,1.118,4.826,2.543V17.891z"/>
			<path clip-path="url(#SVGID_2_)" fill="#E8E8E8" d="M33.942,17.891H29.27h-4.718v0.952c-0.009-1.394,2.083-2.539,4.676-2.559
				c2.592-0.02,4.703,1.092,4.715,2.484V17.891z"/>
			<path clip-path="url(#SVGID_2_)" fill="#E7E7E7" d="M33.83,17.891h-4.563h-4.601v0.951c-0.012-1.36,2.029-2.478,4.562-2.498
				c2.529-0.021,4.592,1.065,4.603,2.425V17.891z"/>
			<path clip-path="url(#SVGID_2_)" fill="#E5E5E5" d="M33.719,17.891h-4.452h-4.491v0.951c-0.008-1.326,1.985-2.418,4.454-2.437
				c2.469-0.021,4.479,1.04,4.489,2.365V17.891z"/>
			<path clip-path="url(#SVGID_2_)" fill="#E4E4E4" d="M33.606,17.891h-4.342h-4.377v0.949c-0.009-1.293,1.936-2.358,4.342-2.376
				c2.407-0.02,4.367,1.014,4.377,2.308V17.891z"/>
			<path clip-path="url(#SVGID_2_)" fill="#E3E3E2" d="M33.494,17.891h-4.229H25v0.948c-0.01-1.26,1.885-2.297,4.229-2.314
				c2.347-0.019,4.256,0.988,4.265,2.247V17.891z"/>
			<path clip-path="url(#SVGID_2_)" fill="#E1E1E1" d="M33.383,17.891h-4.119h-4.152v0.948c-0.012-1.228,1.836-2.238,4.118-2.255
				c2.285-0.019,4.145,0.963,4.153,2.189V17.891z"/>
			<path clip-path="url(#SVGID_2_)" fill="#E0E0DF" d="M33.271,17.891h-4.007h-4.04v0.946c-0.009-1.193,1.784-2.175,4.006-2.192
				c2.224-0.019,4.032,0.936,4.041,2.128V17.891z"/>
			<path clip-path="url(#SVGID_2_)" fill="#DFDFDE" d="M33.159,17.891h-3.896h-3.929v0.944c-0.008-1.159,1.735-2.114,3.896-2.131
				c2.159-0.018,3.919,0.911,3.928,2.071V17.891z"/>
			<path clip-path="url(#SVGID_2_)" fill="#DDDDDD" d="M33.049,17.891h-3.785h-3.816v0.944c-0.012-1.127,1.685-2.055,3.782-2.07
				c2.102-0.018,3.81,0.883,3.819,2.01V17.891z"/>
			<path clip-path="url(#SVGID_2_)" fill="#DCDCDC" d="M32.936,17.891h-3.672h-3.706v0.942c-0.006-1.092,1.636-1.994,3.675-2.009
				c2.036-0.017,3.694,0.857,3.703,1.952V17.891z"/>
			<path clip-path="url(#SVGID_2_)" fill="#DBDBDA" d="M32.824,17.891h-3.562H25.67v0.942c-0.008-1.061,1.585-1.935,3.563-1.949
				c1.976-0.016,3.583,0.832,3.592,1.893V17.891z"/>
			<path clip-path="url(#SVGID_2_)" fill="#DADAD9" d="M32.711,17.891h-3.449h-3.479v0.941c-0.009-1.028,1.538-1.875,3.45-1.888
				c1.914-0.016,3.472,0.805,3.479,1.835V17.891z"/>
			<path clip-path="url(#SVGID_2_)" fill="#D9D9D8" d="M32.601,17.891h-3.339h-3.368v0.94c-0.007-0.993,1.489-1.812,3.34-1.826
				c1.852-0.015,3.359,0.779,3.367,1.775V17.891z"/>
			<path clip-path="url(#SVGID_2_)" fill="#D8D8D7" d="M32.489,17.891h-3.228h-3.255v0.94c-0.008-0.961,1.437-1.753,3.227-1.765
				c1.79-0.015,3.247,0.753,3.256,1.715V17.891z"/>
			<path clip-path="url(#SVGID_2_)" fill="#D7D7D6" d="M32.378,17.891h-3.116h-3.144v0.939c-0.007-0.929,1.388-1.693,3.115-1.705
				c1.728-0.015,3.137,0.728,3.145,1.656V17.891z"/>
			<path clip-path="url(#SVGID_2_)" fill="#D6D6D5" d="M32.265,17.891h-3.003h-3.032v0.937c-0.007-0.893,1.338-1.629,3.003-1.644
				c1.669-0.014,3.027,0.703,3.032,1.598V17.891z"/>
			<path clip-path="url(#SVGID_2_)" fill="#D5D5D4" d="M32.154,17.891h-2.896H26.34v0.937c-0.006-0.862,1.29-1.57,2.895-1.583
				c1.607-0.014,2.911,0.675,2.92,1.537V17.891z"/>
			<path clip-path="url(#SVGID_2_)" fill="#D4D4D3" d="M32.041,17.891h-2.782h-2.806v0.936c-0.007-0.829,1.241-1.51,2.781-1.522
				c1.544-0.012,2.802,0.65,2.807,1.479V17.891z"/>
			<path clip-path="url(#SVGID_2_)" fill="#D3D3D2" d="M31.93,17.891h-2.672h-2.692v0.936c-0.007-0.795,1.188-1.451,2.673-1.462
				c1.479-0.012,2.684,0.624,2.691,1.42V17.891z"/>
			<path clip-path="url(#SVGID_2_)" fill="#D2D2D1" d="M31.818,17.891h-2.561h-2.581v0.934c-0.006-0.762,1.141-1.39,2.561-1.401
				c1.418-0.012,2.575,0.599,2.581,1.363V17.891z"/>
			<path clip-path="url(#SVGID_2_)" fill="#D1D1D0" d="M31.707,17.891h-2.449h-2.469v0.934c-0.006-0.73,1.091-1.33,2.448-1.34
				c1.357-0.012,2.464,0.573,2.47,1.302V17.891z"/>
			<path clip-path="url(#SVGID_2_)" fill="#D0D0CF" d="M31.596,17.891h-2.338h-2.358v0.933c-0.004-0.696,1.043-1.27,2.338-1.281
				c1.298-0.009,2.353,0.547,2.358,1.245V17.891z"/>
			<path clip-path="url(#SVGID_2_)" fill="#CFCFCF" d="M31.484,17.891h-2.228h-2.245v0.933c-0.005-0.664,0.991-1.209,2.227-1.219
				c1.233-0.011,2.24,0.521,2.246,1.183V17.891z"/>
			<path clip-path="url(#SVGID_2_)" fill="#CFCFCE" d="M31.37,17.891h-2.113h-2.135v0.932c-0.003-0.631,0.944-1.148,2.116-1.159
				c1.173-0.008,2.128,0.495,2.132,1.125V17.891z"/>
			<path clip-path="url(#SVGID_2_)" fill="#CECECD" d="M31.259,17.891h-2.003h-2.02v0.931c-0.005-0.597,0.892-1.088,2.004-1.097
				c1.109-0.008,2.015,0.469,2.019,1.065V17.891z"/>
			<path clip-path="url(#SVGID_2_)" fill="#CDCDCC" d="M31.147,17.891h-1.892h-1.908v0.931c-0.005-0.565,0.843-1.029,1.893-1.037
				c1.049-0.008,1.902,0.441,1.907,1.005V17.891z"/>
			<path clip-path="url(#SVGID_2_)" fill="#CDCDCC" d="M31.036,17.891h-1.78h-1.797v0.928c-0.006-0.531,0.793-0.967,1.78-0.975
				c0.987-0.006,1.792,0.416,1.797,0.948V17.891z"/>
			<path clip-path="url(#SVGID_2_)" fill="#CCCCCB" d="M30.925,17.891h-1.669H30.925z"/>
			<path clip-path="url(#SVGID_2_)" fill="#CCCCCB" d="M30.813,17.891h-1.56H30.813z"/>
			<path clip-path="url(#SVGID_2_)" fill="#CBCBCA" d="M30.7,17.891h-1.446H30.7z"/>
			<path clip-path="url(#SVGID_2_)" fill="#CBCBCA" d="M30.588,17.891h-1.334H30.588z"/>
			<path clip-path="url(#SVGID_2_)" fill="#CACAC9" d="M30.477,17.891h-1.225H30.477z"/>
			<path clip-path="url(#SVGID_2_)" fill="#CACAC9" d="M30.365,17.891h-1.113H30.365z"/>
			<path clip-path="url(#SVGID_2_)" fill="#C9C9C8" d="M30.254,17.891h-1.002H30.254z"/>
			<path clip-path="url(#SVGID_2_)" fill="#C9C9C8" d="M30.142,17.891h-0.891H30.142z"/>
			<path clip-path="url(#SVGID_2_)" fill="#C9C9C8" d="M30.03,17.891h-0.779H30.03z"/>
			<path clip-path="url(#SVGID_2_)" fill="#C9C9C8" d="M29.918,17.891h-0.667H29.918z"/>
			<path clip-path="url(#SVGID_2_)" fill="#C8C8C7" d="M29.806,17.891H29.25H29.806z"/>
			<path clip-path="url(#SVGID_2_)" fill="#C8C8C7" d="M29.694,17.891H29.25H29.694z"/>
			<path clip-path="url(#SVGID_2_)" fill="#C8C8C7" d="M29.582,17.891H29.25H29.582z"/>
			<path clip-path="url(#SVGID_2_)" fill="#C8C8C7" d="M29.471,17.891H29.25H29.471z"/>
			<path clip-path="url(#SVGID_2_)" fill="#C8C8C7" d="M29.359,17.891h-0.111H29.359z"/>
		</g>
		<path fill="#FFFFFF" d="M30.501,35.724H6.422c-0.831,0-1.503-0.673-1.503-1.503V8.857c0-0.829,0.672-1.503,1.503-1.503h13.163
			c0.829,0,1.503,0.674,1.503,1.503s-0.674,1.501-1.503,1.501H7.925v22.358H29V21.539c0-0.83,0.671-1.503,1.501-1.503
			s1.502,0.673,1.502,1.503v12.682C32.003,35.051,31.331,35.724,30.501,35.724"/>
	</g>
</g>
<g id="folder" display="none">
	<g display="inline">
		<path fill="#FFFFFF" d="M33.558,34.692H6.442C5.646,34.692,5,34.047,5,33.25V6.749c0-0.796,0.646-1.441,1.442-1.441h8.319
			c0.359,0,0.703,0.133,0.969,0.374l6.369,5.789h11.459c0.797,0,1.442,0.644,1.442,1.441V33.25
			C35,34.047,34.354,34.692,33.558,34.692 M7.883,31.808h24.232V14.354H21.54c-0.357,0-0.704-0.133-0.969-0.375l-6.368-5.788H7.883
			V31.808z"/>
	</g>
</g>
<g id="user" display="none">
	<path display="inline" fill="#FFFFFF" d="M20,37.489c-5.274,0-10.291-1.704-14.507-4.929C5.183,32.322,5,31.955,5,31.563v-2.671
		c0-5.032,3.328-9.438,7.943-10.983c-1.445-1.67-2.261-3.813-2.261-6.081c0-5.137,4.182-9.317,9.317-9.317
		c5.14,0,9.319,4.181,9.319,9.317c0,2.269-0.816,4.412-2.259,6.081C31.673,19.455,35,23.86,35,28.893v2.671
		c0,0.392-0.182,0.759-0.492,0.997C30.291,35.785,25.272,37.489,20,37.489 M7.508,30.937c3.672,2.646,7.978,4.045,12.492,4.045
		c4.516,0,8.821-1.398,12.492-4.045v-2.044c0-4.647-3.625-8.617-8.253-9.029c-0.534-0.05-0.978-0.432-1.105-0.95
		c-0.126-0.522,0.088-1.065,0.538-1.355c1.966-1.263,3.14-3.404,3.14-5.729c0-3.754-3.055-6.81-6.812-6.81
		c-3.753,0-6.81,3.056-6.81,6.81c0,2.325,1.171,4.467,3.137,5.729c0.453,0.29,0.669,0.833,0.542,1.355
		c-0.129,0.519-0.573,0.9-1.105,0.95c-4.629,0.412-8.257,4.379-8.257,9.029V30.937z M33.746,31.563h0.008H33.746z"/>
</g>
</svg>
